<svg xmlns="http://www.w3.org/2000/svg" width="1000" height="315"><g transform="translate(20, 20)"><g transform="translate(0, 260)" style="font-size: 15px; font-family: monospace; font-weight: 300;" fill="none" font-size="10" font-family="sans-serif" text-anchor="middle"><path class="domain" stroke="currentColor" d="M0.5,6V0.5H960.5V6"></path><g class="tick" opacity="1" transform="translate(80.00000000000006,0)"><line stroke="currentColor" y2="6"></line><text fill="currentColor" y="9" dy="0.71em">JavaScript</text></g><g class="tick" opacity="1" transform="translate(194.28571428571433,0)"><line stroke="currentColor" y2="6"></line><text fill="currentColor" y="9" dy="0.71em">JSX</text></g><g class="tick" opacity="1" transform="translate(308.5714285714286,0)"><line stroke="currentColor" y2="6"></line><text fill="currentColor" y="9" dy="0.71em">YAML</text></g><g class="tick" opacity="1" transform="translate(422.8571428571429,0)"><line stroke="currentColor" y2="6"></line><text fill="currentColor" y="9" dy="0.71em">Markdown</text></g><g class="tick" opacity="1" transform="translate(537.1428571428572,0)"><line stroke="currentColor" y2="6"></line><text fill="currentColor" y="9" dy="0.71em">Git Config</text></g><g class="tick" opacity="1" transform="translate(651.4285714285714,0)"><line stroke="currentColor" y2="6"></line><text fill="currentColor" y="9" dy="0.71em">Docker</text></g><g class="tick" opacity="1" transform="translate(765.7142857142858,0)"><line stroke="currentColor" y2="6"></line><text fill="currentColor" y="9" dy="0.71em">Bash</text></g><g class="tick" opacity="1" transform="translate(880.0000000000001,0)"><line stroke="currentColor" y2="6"></line><text fill="currentColor" y="9" dy="0.71em">JSON</text></g></g><rect x="45.71428571428578" y="196.54427645788337" height="63.45572354211663" width="68.57142857142857" fill="#D50657"></rect><rect x="160.00000000000006" y="254.1036717062635" height="5.896328293736502" width="68.57142857142857" fill="#049AE6"></rect><rect x="274.28571428571433" y="254.66522678185746" height="5.334773218142544" width="68.57142857142857" fill="#F8C41B"></rect><rect x="388.5714285714286" y="257.19222462203027" height="2.807775377969733" width="68.57142857142857" fill="#32465B"></rect><rect x="502.8571428571429" y="258.0345572354212" height="1.9654427645788246" width="68.57142857142857" fill="#E45E42"></rect><rect x="617.1428571428571" y="258.3153347732181" height="1.684665226781874" width="68.57142857142857" fill="#007C5A"></rect><rect x="731.4285714285714" y="259.71922246220305" height="0.2807775377969506" width="68.57142857142857" fill="#FC69FF"></rect><rect x="845.7142857142858" y="259.71922246220305" height="0.2807775377969506" width="68.57142857142857" fill="#3EC6CF"></rect><text class="labels" style="fill: #444;" x="45.71428571428578" y="176.54427645788337">2 hrs 26 mins</text><text class="labels" style="fill: #444;" x="160.00000000000006" y="234.1036717062635">21 mins</text><text class="labels" style="fill: #444;" x="274.28571428571433" y="234.66522678185746">19 mins</text><text class="labels" style="fill: #444;" x="388.5714285714286" y="237.19222462203027">10 mins</text><text class="labels" style="fill: #444;" x="502.8571428571429" y="238.03455723542118">7 mins</text><text class="labels" style="fill: #444;" x="617.1428571428571" y="238.31533477321813">6 mins</text><text class="labels" style="fill: #444;" x="731.4285714285714" y="239.71922246220305">1 min</text><text class="labels" style="fill: #444;" x="845.7142857142858" y="239.71922246220305">1 min</text></g></svg>