<svg xmlns="http://www.w3.org/2000/svg" width="625" height="315"><g transform="translate(20, 20)"><g transform="translate(0, 260)" style="font-size: 15px; font-family: monospace; font-weight: 300;" fill="none" font-size="10" font-family="sans-serif" text-anchor="middle"><path class="domain" stroke="currentColor" d="M0.5,6V0.5H585.5V6"></path><g class="tick" opacity="1" transform="translate(75.83333333333334,0)"><line stroke="currentColor" y2="6"></line><text fill="currentColor" y="9" dy="0.71em">JavaScript</text></g><g class="tick" opacity="1" transform="translate(184.16666666666669,0)"><line stroke="currentColor" y2="6"></line><text fill="currentColor" y="9" dy="0.71em">JSX</text></g><g class="tick" opacity="1" transform="translate(292.5,0)"><line stroke="currentColor" y2="6"></line><text fill="currentColor" y="9" dy="0.71em">CSS</text></g><g class="tick" opacity="1" transform="translate(400.83333333333337,0)"><line stroke="currentColor" y2="6"></line><text fill="currentColor" y="9" dy="0.71em">LESS</text></g><g class="tick" opacity="1" transform="translate(509.16666666666674,0)"><line stroke="currentColor" y2="6"></line><text fill="currentColor" y="9" dy="0.71em">JSON</text></g></g><rect x="43.33333333333334" y="45.21739130434783" height="214.7826086956522" width="65" fill="#D50657"></rect><rect x="151.66666666666669" y="45.895652173913014" height="214.10434782608698" width="65" fill="#049AE6"></rect><rect x="260" y="230.15652173913043" height="29.843478260869574" width="65" fill="#F8C41B"></rect><rect x="368.33333333333337" y="249.82608695652175" height="10.173913043478251" width="65" fill="#32465B"></rect><rect x="476.66666666666674" y="259.32173913043476" height="0.6782608695652357" width="65" fill="#E45E42"></rect><text class="labels" style="fill: #444;" x="43.33333333333334" y="25.217391304347828">9 hrs 50 mins</text><text class="labels" style="fill: #444;" x="151.66666666666669" y="25.895652173913014">9 hrs 47 mins</text><text class="labels" style="fill: #444;" x="260" y="210.15652173913043">1 hr 32 mins</text><text class="labels" style="fill: #444;" x="368.33333333333337" y="229.82608695652175">45 mins</text><text class="labels" style="fill: #444;" x="476.66666666666674" y="239.32173913043476">3 mins</text></g></svg>