<svg xmlns="http://www.w3.org/2000/svg" width="1625" height="315"><g transform="translate(20, 20)"><g transform="translate(0, 260)" style="font-size: 15px; font-family: monospace; font-weight: 300;" fill="none" font-size="10" font-family="sans-serif" text-anchor="middle"><path class="domain" stroke="currentColor" d="M0.5,6V0.5H1585.5V6"></path><g class="tick" opacity="1" transform="translate(82.79850746268656,0)"><line stroke="currentColor" y2="6"></line><text fill="currentColor" y="9" dy="0.71em">JSX</text></g><g class="tick" opacity="1" transform="translate(201.08208955223878,0)"><line stroke="currentColor" y2="6"></line><text fill="currentColor" y="9" dy="0.71em">JavaScript</text></g><g class="tick" opacity="1" transform="translate(319.365671641791,0)"><line stroke="currentColor" y2="6"></line><text fill="currentColor" y="9" dy="0.71em">CSS</text></g><g class="tick" opacity="1" transform="translate(437.64925373134326,0)"><line stroke="currentColor" y2="6"></line><text fill="currentColor" y="9" dy="0.71em">LESS</text></g><g class="tick" opacity="1" transform="translate(555.9328358208955,0)"><line stroke="currentColor" y2="6"></line><text fill="currentColor" y="9" dy="0.71em">JSON</text></g><g class="tick" opacity="1" transform="translate(674.2164179104477,0)"><line stroke="currentColor" y2="6"></line><text fill="currentColor" y="9" dy="0.71em">YAML</text></g><g class="tick" opacity="1" transform="translate(792.5,0)"><line stroke="currentColor" y2="6"></line><text fill="currentColor" y="9" dy="0.71em">Git Config</text></g><g class="tick" opacity="1" transform="translate(910.7835820895522,0)"><line stroke="currentColor" y2="6"></line><text fill="currentColor" y="9" dy="0.71em">TypeScript</text></g><g class="tick" opacity="1" transform="translate(1029.0671641791046,0)"><line stroke="currentColor" y2="6"></line><text fill="currentColor" y="9" dy="0.71em">Markdown</text></g><g class="tick" opacity="1" transform="translate(1147.3507462686566,0)"><line stroke="currentColor" y2="6"></line><text fill="currentColor" y="9" dy="0.71em">Docker</text></g><g class="tick" opacity="1" transform="translate(1265.6343283582091,0)"><line stroke="currentColor" y2="6"></line><text fill="currentColor" y="9" dy="0.71em">HTML</text></g><g class="tick" opacity="1" transform="translate(1383.9179104477612,0)"><line stroke="currentColor" y2="6"></line><text fill="currentColor" y="9" dy="0.71em">Makefile</text></g><g class="tick" opacity="1" transform="translate(1502.2014925373137,0)"><line stroke="currentColor" y2="6"></line><text fill="currentColor" y="9" dy="0.71em">Bash</text></g></g><rect x="47.31343283582089" y="30.182421227197352" height="229.81757877280265" width="70.97014925373134" fill="#D50657"></rect><rect x="165.59701492537312" y="63.98673300165835" height="196.01326699834163" width="70.97014925373134" fill="#049AE6"></rect><rect x="283.88059701492534" y="232.62023217247096" height="27.379767827529037" width="70.97014925373134" fill="#F8C41B"></rect><rect x="402.1641791044776" y="254.82587064676616" height="5.1741293532338375" width="70.97014925373134" fill="#32465B"></rect><rect x="520.4477611940299" y="257.8872305140962" height="2.1127694859038115" width="70.97014925373134" fill="#E45E42"></rect><rect x="638.7313432835821" y="258.70646766169153" height="1.2935323383084665" width="70.97014925373134" fill="#007C5A"></rect><rect x="757.0149253731344" y="258.8358208955224" height="1.1641791044776255" width="70.97014925373134" fill="#FC69FF"></rect><rect x="875.2985074626865" y="258.9651741293532" height="1.0348258706467846" width="70.97014925373134" fill="#3EC6CF"></rect><rect x="993.5820895522388" y="259.2238805970149" height="0.7761194029851026" width="70.97014925373134" fill="#620A79"></rect><rect x="1111.8656716417909" y="259.2669983416252" height="0.7330016583748034" width="70.97014925373134" fill="#D50657"></rect><rect x="1230.1492537313434" y="259.6550580431177" height="0.34494195688228046" width="70.97014925373134" fill="#049AE6"></rect><rect x="1348.4328358208954" y="259.91376451077946" height="0.0862354892205417" width="70.97014925373134" fill="#F8C41B"></rect><rect x="1466.716417910448" y="259.9568822553897" height="0.04311774461029927" width="70.97014925373134" fill="#32465B"></rect><text class="labels" style="fill: #444;" x="47.31343283582089" y="10.182421227197352">53 hrs 30 mins</text><text class="labels" style="fill: #444;" x="165.59701492537312" y="43.98673300165835">45 hrs 46 mins</text><text class="labels" style="fill: #444;" x="283.88059701492534" y="212.62023217247096">6 hrs 35 mins</text><text class="labels" style="fill: #444;" x="402.1641791044776" y="234.82587064676616">1 hr 20 mins</text><text class="labels" style="fill: #444;" x="520.4477611940299" y="237.8872305140962">49 mins</text><text class="labels" style="fill: #444;" x="638.7313432835821" y="238.70646766169153">30 mins</text><text class="labels" style="fill: #444;" x="757.0149253731344" y="238.83582089552237">27 mins</text><text class="labels" style="fill: #444;" x="875.2985074626865" y="238.96517412935322">24 mins</text><text class="labels" style="fill: #444;" x="993.5820895522388" y="239.2238805970149">18 mins</text><text class="labels" style="fill: #444;" x="1111.8656716417909" y="239.2669983416252">17 mins</text><text class="labels" style="fill: #444;" x="1230.1492537313434" y="239.65505804311772">8 mins</text><text class="labels" style="fill: #444;" x="1348.4328358208954" y="239.91376451077946">2 mins</text><text class="labels" style="fill: #444;" x="1466.716417910448" y="239.9568822553897">1 min</text></g></svg>