<svg xmlns="http://www.w3.org/2000/svg" width="1500" height="315"><g transform="translate(20, 20)"><g transform="translate(0, 260)" style="font-size: 15px; font-family: monospace; font-weight: 300;" fill="none" font-size="10" font-family="sans-serif" text-anchor="middle"><path class="domain" stroke="currentColor" d="M0.5,6V0.5H1460.5V6"></path><g class="tick" opacity="1" transform="translate(82.4193548387097,0)"><line stroke="currentColor" y2="6"></line><text fill="currentColor" y="9" dy="0.71em">JSX</text></g><g class="tick" opacity="1" transform="translate(200.16129032258067,0)"><line stroke="currentColor" y2="6"></line><text fill="currentColor" y="9" dy="0.71em">JavaScript</text></g><g class="tick" opacity="1" transform="translate(317.90322580645164,0)"><line stroke="currentColor" y2="6"></line><text fill="currentColor" y="9" dy="0.71em">CSS</text></g><g class="tick" opacity="1" transform="translate(435.64516129032256,0)"><line stroke="currentColor" y2="6"></line><text fill="currentColor" y="9" dy="0.71em">LESS</text></g><g class="tick" opacity="1" transform="translate(553.3870967741935,0)"><line stroke="currentColor" y2="6"></line><text fill="currentColor" y="9" dy="0.71em">JSON</text></g><g class="tick" opacity="1" transform="translate(671.1290322580645,0)"><line stroke="currentColor" y2="6"></line><text fill="currentColor" y="9" dy="0.71em">Git Config</text></g><g class="tick" opacity="1" transform="translate(788.8709677419355,0)"><line stroke="currentColor" y2="6"></line><text fill="currentColor" y="9" dy="0.71em">HTML</text></g><g class="tick" opacity="1" transform="translate(906.6129032258065,0)"><line stroke="currentColor" y2="6"></line><text fill="currentColor" y="9" dy="0.71em">TypeScript</text></g><g class="tick" opacity="1" transform="translate(1024.3548387096776,0)"><line stroke="currentColor" y2="6"></line><text fill="currentColor" y="9" dy="0.71em">YAML</text></g><g class="tick" opacity="1" transform="translate(1142.096774193548,0)"><line stroke="currentColor" y2="6"></line><text fill="currentColor" y="9" dy="0.71em">Docker</text></g><g class="tick" opacity="1" transform="translate(1259.8387096774193,0)"><line stroke="currentColor" y2="6"></line><text fill="currentColor" y="9" dy="0.71em">Markdown</text></g><g class="tick" opacity="1" transform="translate(1377.58064516129,0)"><line stroke="currentColor" y2="6"></line><text fill="currentColor" y="9" dy="0.71em">Makefile</text></g></g><rect x="47.09677419354841" y="30.09259259259258" height="229.90740740740742" width="70.64516129032258" fill="#D50657"></rect><rect x="164.8387096774194" y="69.81481481481481" height="190.1851851851852" width="70.64516129032258" fill="#049AE6"></rect><rect x="282.58064516129036" y="232.27182539682542" height="27.72817460317458" width="70.64516129032258" fill="#F8C41B"></rect><rect x="400.3225806451613" y="251.27314814814815" height="8.726851851851848" width="70.64516129032258" fill="#32465B"></rect><rect x="518.0645161290322" y="254.58333333333331" height="5.416666666666686" width="70.64516129032258" fill="#E45E42"></rect><rect x="635.8064516129032" y="258.3234126984127" height="1.6765873015872899" width="70.64516129032258" fill="#007C5A"></rect><rect x="753.5483870967741" y="258.71031746031747" height="1.2896825396825307" width="70.64516129032258" fill="#FC69FF"></rect><rect x="871.2903225806451" y="258.968253968254" height="1.0317460317460245" width="70.64516129032258" fill="#3EC6CF"></rect><rect x="989.0322580645161" y="259.5271164021164" height="0.4728835978835946" width="70.64516129032258" fill="#620A79"></rect><rect x="1106.7741935483868" y="259.5701058201058" height="0.4298941798941769" width="70.64516129032258" fill="#D50657"></rect><rect x="1224.516129032258" y="259.6990740740741" height="0.3009259259259238" width="70.64516129032258" fill="#049AE6"></rect><rect x="1342.2580645161288" y="259.91402116402116" height="0.08597883597883538" width="70.64516129032258" fill="#F8C41B"></rect><text class="labels" style="fill: #444;" x="47.09677419354841" y="10.092592592592581">53 hrs 48 mins</text><text class="labels" style="fill: #444;" x="164.8387096774194" y="49.81481481481481">44 hrs 24 mins</text><text class="labels" style="fill: #444;" x="282.58064516129036" y="212.27182539682542">6 hrs 45 mins</text><text class="labels" style="fill: #444;" x="400.3225806451613" y="231.27314814814815">2 hrs 3 mins</text><text class="labels" style="fill: #444;" x="518.0645161290322" y="234.58333333333331">1 hr 26 mins</text><text class="labels" style="fill: #444;" x="635.8064516129032" y="238.3234126984127">39 mins</text><text class="labels" style="fill: #444;" x="753.5483870967741" y="238.71031746031747">30 mins</text><text class="labels" style="fill: #444;" x="871.2903225806451" y="238.96825396825398">24 mins</text><text class="labels" style="fill: #444;" x="989.0322580645161" y="239.5271164021164">11 mins</text><text class="labels" style="fill: #444;" x="1106.7741935483868" y="239.57010582010582">10 mins</text><text class="labels" style="fill: #444;" x="1224.516129032258" y="239.69907407407408">7 mins</text><text class="labels" style="fill: #444;" x="1342.2580645161288" y="239.91402116402116">2 mins</text></g></svg>